<svg xmlns="http://www.w3.org/2000/svg" viewBox="0 0 100 100" fill="none">
  <!-- PayPal Logo - Blue and light blue design -->
  <circle cx="50" cy="50" r="50" fill="#002991"/>
  <path d="M50 20C33.4315 20 20 33.4315 20 50C20 66.5685 33.4315 80 50 80C66.5685 80 80 66.5685 80 50C80 33.4315 66.5685 20 50 20Z" fill="#60CDFF"/>
  <path d="M30 50C30 45.0294 34.0294 41 39 41H55C58.3137 41 61 43.6863 61 47V53C61 56.3137 58.3137 59 55 59H45L42 66H35L38 59H39C34.0294 59 30 54.9706 30 50Z" fill="#002991"/>
</svg>

