<svg xmlns="http://www.w3.org/2000/svg" viewBox="0 0 100 100" fill="none">
  <!-- Salesforce Logo - Cloud shape in blue -->
  <circle cx="50" cy="50" r="50" fill="#00A1E0"/>
  <path d="M50 25C35.0883 25 23 37.0883 23 52C23 66.9117 35.0883 79 50 79C64.9117 79 77 66.9117 77 52C77 37.0883 64.9117 25 50 25Z" fill="white"/>
  <path d="M35 45C35 40.0294 39.0294 36 44 36C46.7614 36 49.2975 37.4289 50.899 39.6651C52.5005 37.4289 55.0366 36 57.798 36C62.7686 36 66.798 40.0294 66.798 45C66.798 49.9706 62.7686 54 57.798 54H44C39.0294 54 35 49.9706 35 45Z" fill="#00A1E0"/>
</svg>

